{"title":"BBC.Bang.Goes.the.Theory.S05E01.Series.5.Episode.1_x264.aac.mp4.","uid":6608640,"size":559575966,"categoryP":"video","categoryS":"hd___tv_shows","magnet":"?xt=urn:btih:97001305b20c41665fc468451f3861702ffbecf6&amp;dn=BBC.Bang.Goes.the.Theory.S05E01.Series.5.Episode.1_x264.aac.mp4.&amp;tr=udp%3A%2F%2Ftracker.openbittorrent.com%3A80&amp;tr=udp%3A%2F%2Fopen.demonii.com%3A1337&amp;tr=udp%3A%2F%2Ftracker.coppersurfer.tk%3A6969&amp;tr=udp%3A%2F%2Fexodus.desync.com%3A6969","seeders":0,"leechers":0,"uploader":"aularon","files":-1,"time":1313501977,"description":"- - -\nSynopsis\n- - -\nJem makes his own diamond and then proves they aren't forever. Dr Yan explains the science of popcorn, and Dallas investigates why we haven't cured cancer yet, meeting the team that hope to change that.\n\n\n- - -\nURL\n- - -\n    &lt;a href=&quot;\nhttp://www.bbc.co.uk/programmes/b013q2bg&quot; rel=&quot;nofollow&quot; target=&quot;_NEW&quot;&gt;\nhttp://www.bbc.co.uk/programmes/b013q2bg&lt;/a&gt;\n\n\n- - -\nTechnical Details\n- - -\nGeneral\nComplete name                    : BBC.Bang.Goes.the.Theory.S05E01.Series.5.Episode.1/Bang_Goes_the_Theory_Series_5_-_Episode_1_b013q2bg_default.mp4\nFormat                           : MPEG-4\nFormat profile                   : Base Media\nCodec ID                         : isom\nFile size                        : 534 MiB\nDuration                         : 27mn 59s\nOverall bit rate                 : 2 665 Kbps\nMovie name                       : Bang Goes the Theory: Series 5: Episode 1\nAlbum                            : Bang Goes the Theory: Series 5\nTrack name/Position              : 1\nTrack name/Total                 : 0\nPerformer                        : Bang Goes the Theory: Series 5\nGenre                            : Factual,Science &amp; Nature\nRecorded date                    : 2011-08-15T19:30:00+01:00\nWriting application              : Lavf53.6.0\nCover                            : Yes\nComment                          : Recorded using get_iplayer, by Aularon.\nrtng                             : 2\nstik                             : 1\ndesc                             : Science series. Jem makes his own diamond and then proves they aren't forever, Dr Yan explains the science of popcorn and Dallas investigates why we haven't cured cancer yet.\ntvnn                             : BBC One\ntvsh                             : Bang Goes the Theory: Series 5\ntven                             : b013q2bg\ncatg                             : Factual,Science &amp; Nature\ntvsn                             : 5\ntves                             : 1\n\nVideo\nID                               : 1\nFormat                           : AVC\nFormat/Info                      : Advanced Video Codec\nFormat profile                   : &lt;a class=&quot;__cf_email__&quot; href=&quot;/cdn-cgi/l/email-protection&quot; data-cfemail=&quot;81c9e8e6e9c1cdb5afb0&quot;&gt;[email&amp;#160;protected]&lt;/a&gt;&lt;script cf-hash='f9e31' type=&quot;text/javascript&quot;&gt;\n/* &lt;![CDATA[ */!function(){try{var t=&quot;currentScript&quot;in document?document.currentScript:function(){for(var t=document.getElementsByTagName(&quot;script&quot;),e=t.length;e--;)if(t[e].getAttribute(&quot;cf-hash&quot;))return t[e]}();if(t&amp;&amp;t.previousSibling){var e,r,n,i,c=t.previousSibling,a=c.getAttribute(&quot;data-cfemail&quot;);if(a){for(e=&quot;&quot;,r=parseInt(a.substr(0,2),16),n=2;a.length-n;n+=2)i=parseInt(a.substr(n,2),16)^r,e+=String.fromCharCode(i);e=document.createTextNode(e),c.parentNode.replaceChild(e,c)}}}catch(u){}}();/* ]]&gt; */&lt;/script&gt;\nFormat settings, CABAC           : Yes\nFormat settings, ReFrames        : 6 frames\nFormat settings, GOP             : M=1, N=49\nCodec ID                         : avc1\nCodec ID/Info                    : Advanced Video Coding\nDuration                         : 27mn 59s\nBit rate mode                    : Variable\nBit rate                         : 2 565 Kbps\nMaximum bit rate                 : 3 500 Kbps\nWidth                            : 1 280 pixels\nHeight                           : 720 pixels\nDisplay aspect ratio             : 16:9\nFrame rate mode                  : Constant\nFrame rate                       : 25.000 fps\nStandard                         : PAL\nColor space                      : YUV\nChroma subsampling               : 4:2:0\nBit depth                        : 8 bits\nScan type                        : Progressive\nBits/(Pixel*Frame)               : 0.111\nStream size                      : 513 MiB (96%)\n\nAudio\nID                               : 2\nFormat                           : AAC\nFormat/Info                      : Advanced Audio Codec\nFormat profile                   : HE-AAC / LC\nCodec ID                         : 40\nDuration                         : 27mn 59s\nBit rate mode                    : Constant\nBit rate                         : 96.0 Kbps\nChannel(s)                       : 2 channels\nChannel positions                : Front: L R\nSampling rate                    : 48.0 KHz / 24.0 KHz\nCompression mode                 : Lossy\nStream size                      : 19.0 MiB (4%)\n\n","torrent":{"xt":"urn:btih:97001305b20c41665fc468451f3861702ffbecf6","amp;dn":"BBC.Bang.Goes.the.Theory.S05E01.Series.5.Episode.1_x264.aac.mp4.","amp;tr":["udp%3A%2F%2Ftracker.openbittorrent.com%3A80","udp%3A%2F%2Fopen.demonii.com%3A1337","udp%3A%2F%2Ftracker.coppersurfer.tk%3A6969","udp%3A%2F%2Fexodus.desync.com%3A6969"],"infoHash":"97001305b20c41665fc468451f3861702ffbecf6","infoHashBuffer":{"type":"Buffer","data":[151,0,19,5,178,12,65,102,95,196,104,69,31,56,97,112,47,251,236,246]},"announce":[],"urlList":[]}}